Patient4_TMGait_0pt4_02_left_01_EMG.mot
version=1
nRows=20
nColumns=33
inDegrees=no
endheader
time	1LAddLong	2LGlutMax	3LGlutMed	4LIliopsoas	5LSemiMemb	6LBicFemLong	7LRecFem	8LVastMed	9LVastLat	10LGasMed	11LTibAnt	12lTibPost	13LPeroneusLong	14LSol	15LExtDigLong	16LFlexDigLong	17RAddLong	18RGlutMax	19RGlutMed	20RIliopsoas	21RSemiMemb	22RBicFemLong	23RRecFem	24RVastMed	25RVastLat	26RGasMed	27RTibAnt	28RTibPost	29RPeroneusLong	30RSol	31RExtDigLong	32RFlexDigLong
1.665	0.029755	-0.093689	0.24918	0.018311	-0.058289	-0.06073	-0.18417	0.008087	-0.050659	-0.014038	-0.026703	0.015717	-0.053711	-0.00946	0.016785	-0.29678	0.12116	0.081177	-0.081024	-0.13794	-0.0177	-0.073395	0.38437	-0.048676	0.038605	0.003357	-0.21316	-0.002441	0.14557	0.10452	-0.003662	-0.008392
1.666	0.029602	-0.088806	0.06073	0.012665	0.011292	-0.089264	-0.29266	-0.024261	0.023041	-0.031738	-0.032196	0.001068	0.058594	-0.011597	0.019684	0.23804	0.15701	0.03418	-0.1236	-0.11139	0.016327	-0.003662	0.40405	0.018005	0.021362	0.003357	0.15106	-0.003357	0.10971	0.076752	-0.000153	-0.010986
1.667	0.022278	-0.12466	-0.059357	-0.005493	0.055237	-0.066376	-0.32059	-0.056763	0.060883	0.005341	-0.016174	0.004578	0.011292	0.008087	0.008087	-0.44083	0.14816	-0.013123	-0.12604	-0.10757	0.04303	0.013885	0.38452	0.007019	0.014801	0	-0.015869	-0.002899	-0.008392	0.059357	-0.003357	-0.011597
1.668	0.007629	-0.080566	-0.082397	0.009003	0.007629	-0.075226	-0.33936	-0.066376	0.047302	-0.002136	0.005493	-0.015106	-0.05661	-0.1181	0.011444	0.159	0.11353	0.017395	-0.043182	-0.13458	0.014191	0.027313	0.39352	0.037079	0.016632	-0.003357	0.013123	-0.007019	-0.034485	0.090027	0.002441	-0.014954
1.669	0.006409	-0.048828	-0.16174	0.010681	-0.021362	-0.12726	-0.26413	-0.035095	0.006104	-0.031738	0.007019	-0.064697	-0.052795	-0.094757	0.004272	0.091858	0.045319	-0.020294	-0.1619	-0.06012	-0.00061	0.044861	0.41245	0.055084	0.006561	-0.006714	0.12177	-0.001221	-0.006256	0.064087	-0.002899	-0.018616
1.67	-0.001373	0.002899	-0.18356	0.000458	0.001221	-0.096283	-0.29511	-0.001984	-0.034943	-0.050964	0.002899	-0.041504	0.00946	0.21332	0.006104	0.025787	-0.018768	-0.015564	-0.12283	0.04425	0.0383	0.065002	0.39612	0.006104	0.010986	-0.011444	0.3093	-0.003815	0.029755	0.010986	-0.00351	-0.018921
1.671	0.0177	0.020905	-0.1857	-0.012054	0.074005	-0.041046	-0.46997	0.00946	-0.02594	-0.029907	0.006561	-0.026093	0.041046	0.16388	-0.005035	0.14313	-0.038452	-0.046997	-0.082855	0.17853	0.019379	0.10391	0.38849	0.046844	0.01236	-0.015564	0.098572	0.008698	0.023346	-0.034943	0	-0.021057
1.672	0.007477	-0.007477	-0.041962	-0.006104	0.018616	0.045471	-0.44113	0.010834	0.006866	0.031281	0.003662	-0.027161	0.041199	-0.18341	-0.003815	0.07431	-0.066986	-0.12268	-0.070648	0.25391	0.016174	0.09201	0.41626	0.06073	0.002136	-0.00885	-0.65735	-0.000153	0.039673	-0.071106	-0.00351	-0.016937
1.673	0.003967	0.034027	-0.029144	0.003815	0.010681	0.090027	-0.42877	0.029144	0.011292	0.10529	-0.007935	-0.021667	0.031433	-0.039673	0.003662	-0.013123	-0.07782	-0.15015	-0.032349	0.22736	0.019073	0.10941	0.37003	0.081329	0.024261	-0.00824	-1.2596	0.000305	-0.048981	-0.08606	-0.003052	-0.021057
1.674	0.005798	0.03891	0.16068	0.011749	-0.000305	0.12787	-0.45944	0.01297	0.074615	0.13107	-0.000458	-0.01297	0.039978	0.24506	0.002136	-0.030823	-0.079346	-0.10391	0.099182	0.12909	0.008087	0.12375	0.35599	0.057831	0.00473	0.010071	-0.47089	0.000153	0.11093	-0.18188	-0.004272	-0.011749
1.675	0.01236	0.075073	0.14786	0.016479	-0.013123	0.19791	-0.44876	0.027771	0.25421	0.14481	-0.018616	-0.00946	0.03891	0.064392	-0.002594	0.17151	-0.048676	-0.063171	0.056915	0.13062	-0.022278	0.06424	0.36758	0.050659	0.008087	0.034027	0.31113	0.001831	0.25894	-0.32715	0.001526	-0.006256
1.676	0.002136	0.067291	0.17639	0.03006	-0.059662	0.19821	-0.44876	0.036774	0.4216	0.12543	-0.001831	-0.003052	0.040283	-0.19501	-0.001526	-0.001678	-0.050812	-0.048218	0.22614	0.15427	-0.061493	0.041351	0.36102	0.027161	0.007629	0.028076	0.28534	-0.000305	0.12421	-0.18341	-0.001373	0.010681
1.677	0.012665	0.032196	0.052948	0.056915	-0.032806	0.19669	-0.49622	0.028687	0.53436	0.10223	0.023346	-0.00473	0.033569	-0.4155	0.009766	0.1326	-0.046082	-0.062408	0.012817	0.14725	-0.053406	0.071259	0.37064	0.00061	0.00824	0.010681	0.21057	0.002747	-0.06546	-0.020294	-0.000916	-0.006256
1.678	0.010071	0.023956	-0.17136	0.004578	-0.057831	0.14786	-0.50079	0.006409	0.45441	0.063324	0.026398	-0.00473	0.003204	-0.28915	0.009918	-0.011749	-0.023804	-0.10529	-0.23315	0.019836	-0.082703	0.10483	0.32715	-0.015106	0.007019	0.002899	0.21973	-0.005035	-0.12329	0.039978	-0.004425	-0.007935
1.679	0.011597	0.006714	-0.14236	-0.0177	-0.025482	0.09552	-0.54565	-0.03952	0.41199	-0.053558	-0.023956	-0.011444	0.00473	-0.0383	0.003662	-0.019073	-0.031891	-0.1265	-0.15182	-0.053406	-0.11398	0.040741	0.37003	-0.056152	-0.005341	-0.00061	0.33432	-0.001678	-0.023193	0.012054	-0.007782	-0.007935
1.68	0.009766	0.095367	-0.12222	0.005341	0.034637	0.02121	-0.60379	-0.044403	0.20538	-0.084076	-0.094604	-0.018158	0.031738	-0.001373	-0.023956	-0.059509	-0.046082	-0.060272	-0.1561	-0.079498	-0.12543	-0.06958	0.3389	-0.037079	0.003815	0.008392	0.61111	-0.001526	0.037994	-0.028076	-0.002747	-0.007324
1.681	0.006256	0.043488	-0.13718	0.033417	-0.000763	-0.05249	-0.57465	-0.066376	-0.14984	-0.08667	-0.11826	-0.017395	0.08606	0.038147	-0.024872	-0.059204	-0.054169	-0.089874	-0.062256	-0.13046	-0.098877	-0.042114	0.34058	-0.042877	-0.015411	0.007782	0.48675	-0.006561	0.090179	0.056152	-0.001831	-0.008698
1.682	-0.013123	0.043793	-0.095062	0.002289	-0.026703	-0.04303	-0.46371	-0.03418	-0.43686	-0.023956	-0.050659	-0.015717	0.10757	0.056	-0.02182	-0.072937	-0.025635	-0.08667	-0.015869	-0.11032	-0.088654	-0.029602	0.37079	-0.045929	-0.043182	-0.001373	-0.029449	-0.005646	0.14236	0.16296	-0.001373	-0.002899
1.683	-0.00885	0.11093	-0.073547	0.009155	-0.024109	0.013885	-0.37796	-0.014648	-0.34409	-0.010834	-0.060272	-0.012512	0.16281	0.052948	-0.011292	-0.057831	0.003815	-0.11063	0.01236	-0.067139	-0.079651	-0.037842	0.37125	-0.066986	-0.039368	0.002136	-0.46249	-0.002747	0.159	0.1506	-0.003357	-0.007477
1.684	-0.002899	0.18219	0.016785	-0.008698	-0.043335	0.041199	-0.36499	-0.023193	-0.16586	-0.007629	0.023346	-0.007782	0.034637	-0.10193	0.002899	-0.060425	0.00351	-0.076447	0.059052	-0.092773	-0.066071	-0.019836	0.35385	-0.085907	-0.03418	-0.00885	-0.42252	-0.000916	0.000458	0.062561	-0.003967	-0.004883
